<svg width="28" height="28" viewBox="0 0 28 28" fill="none" xmlns="http://www.w3.org/2000/svg">
<path d="M16.8133 6.25C18.0342 6.48821 19.1563 7.08532 20.0359 7.96492C20.9155 8.84452 21.5126 9.96658 21.7508 11.1875M16.8133 1.25C19.3499 1.5318 21.7153 2.66772 23.5211 4.47126C25.3269 6.2748 26.4658 8.63876 26.7508 11.175M25.5008 21.15V24.9C25.5022 25.2481 25.4309 25.5927 25.2914 25.9117C25.1519 26.2307 24.9474 26.517 24.6909 26.7523C24.4343 26.9877 24.1315 27.1669 23.8017 27.2784C23.4719 27.3899 23.1225 27.4313 22.7758 27.4C18.9293 26.9821 15.2345 25.6677 11.9883 23.5625C8.96806 21.6433 6.40744 19.0827 4.48827 16.0625C2.37574 12.8015 1.06107 9.08874 0.650771 5.225C0.619534 4.87933 0.660615 4.53095 0.771396 4.20203C0.882178 3.87311 1.06023 3.57086 1.29423 3.31453C1.52822 3.05819 1.81303 2.85339 2.13051 2.71315C2.44799 2.57292 2.7912 2.50033 3.13827 2.5H6.88827C7.4949 2.49403 8.08301 2.70885 8.54297 3.10442C9.00294 3.49998 9.30337 4.04931 9.38827 4.65C9.54655 5.85008 9.84008 7.02841 10.2633 8.1625C10.4315 8.6099 10.4678 9.09614 10.3682 9.5636C10.2685 10.0311 10.0368 10.4601 9.70077 10.8L8.11327 12.3875C9.89272 15.5169 12.4838 18.1081 15.6133 19.8875L17.2008 18.3C17.5406 17.9639 17.9697 17.7323 18.4372 17.6326C18.9046 17.5329 19.3909 17.5693 19.8383 17.7375C20.9724 18.1607 22.1507 18.4542 23.3508 18.6125C23.958 18.6982 24.5125 19.004 24.9089 19.4719C25.3054 19.9397 25.516 20.537 25.5008 21.15Z" stroke="white" stroke-linecap="round" stroke-linejoin="round"/>
</svg>
