<svg width="60" height="60" viewBox="0 0 60 60" fill="none" xmlns="http://www.w3.org/2000/svg">
<path d="M39.1553 30H48.3105V37.3242C48.3105 41.364 45.0261 44.6484 40.9863 44.6484H40.0709C39.7099 44.6476 39.3524 44.718 39.0187 44.8558C38.6851 44.9935 38.382 45.1958 38.1268 45.451C37.8715 45.7062 37.6693 46.0093 37.5315 46.343C37.3938 46.6766 37.3234 47.0341 37.3242 47.3951V52.8882C37.3234 53.2492 37.3938 53.6067 37.5315 53.9404C37.6693 54.274 37.8715 54.5771 38.1268 54.8323C38.382 55.0876 38.6851 55.2898 39.0187 55.4276C39.3524 55.5653 39.7099 55.6357 40.0709 55.6349H40.9863C51.1029 55.6349 59.2969 47.4409 59.2969 37.3243V9.8584C59.2969 6.8257 56.8364 4.36523 53.8037 4.36523H39.1553C36.1226 4.36523 33.6621 6.8257 33.6621 9.8584V24.5068C33.6621 27.5395 36.1226 30 39.1553 30ZM6.19629 30H15.3516V37.3242C15.3516 41.364 12.0671 44.6484 8.02734 44.6484H7.11188C6.75094 44.6476 6.39339 44.718 6.05976 44.8558C5.72613 44.9935 5.423 45.1958 5.16778 45.451C4.91256 45.7062 4.71027 46.0093 4.57255 46.343C4.43482 46.6766 4.36437 47.0341 4.36523 47.3951V52.8882C4.36437 53.2492 4.43482 53.6067 4.57255 53.9404C4.71027 54.274 4.91256 54.5771 5.16778 54.8323C5.423 55.0876 5.72613 55.2898 6.05976 55.4276C6.39339 55.5653 6.75094 55.6357 7.11188 55.6349H8.02734C18.1439 55.6349 26.3379 47.4409 26.3379 37.3243V9.8584C26.3379 6.8257 23.8774 4.36523 20.8447 4.36523H6.19629C3.16359 4.36523 0.703125 6.8257 0.703125 9.8584V24.5068C0.703125 27.5395 3.16359 30 6.19629 30Z" fill="white"/>
</svg>
