<svg width="24" height="24" viewBox="0 0 24 24" fill="none" xmlns="http://www.w3.org/2000/svg">
<path d="M12 24C18.6274 24 24 18.6274 24 12C24 5.37258 18.6274 0 12 0C5.37258 0 0 5.37258 0 12C0 18.6274 5.37258 24 12 24Z" fill="#25D366"/>
<path fill-rule="evenodd" clip-rule="evenodd" d="M12.3948 18.6763H12.3918C11.1976 18.6758 10.0241 18.3762 8.98189 17.8077L5.19922 18.8L6.21153 15.1024C5.58709 14.0203 5.25851 12.7927 5.25904 11.5351C5.26061 7.60085 8.46163 4.4 12.3947 4.4C14.3035 4.40082 16.0951 5.14393 17.4423 6.49271C18.7895 7.84141 19.531 9.63417 19.5303 11.5408C19.5287 15.4741 16.329 18.6747 12.3948 18.6763ZM9.15715 16.5159L9.37372 16.6445C10.2843 17.1848 11.3281 17.4708 12.3924 17.4712H12.3948C15.6636 17.4712 18.3242 14.8106 18.3255 11.5403C18.3261 9.9556 17.7098 8.46554 16.5901 7.34449C15.4703 6.22345 13.9812 5.60577 12.3971 5.60522C9.12568 5.60522 6.46511 8.26555 6.46381 11.5355C6.46335 12.6562 6.7769 13.7476 7.37059 14.6918L7.5116 14.9162L6.91246 17.1048L9.15715 16.5159ZM15.7454 13.077C15.8698 13.1371 15.9537 13.1777 15.9896 13.2376C16.0342 13.3119 16.0342 13.6689 15.8857 14.0854C15.737 14.5019 15.0247 14.882 14.6822 14.9332C14.375 14.9791 13.9863 14.9982 13.5592 14.8625C13.3002 14.7804 12.9682 14.6707 12.5428 14.4869C10.8713 13.7652 9.74173 12.1452 9.52825 11.839C9.51329 11.8176 9.50283 11.8026 9.497 11.7948L9.49556 11.7929C9.4012 11.667 8.76898 10.8234 8.76898 9.95039C8.76898 9.12912 9.1724 8.69865 9.35809 8.50051C9.37081 8.48693 9.38251 8.47445 9.39299 8.463C9.55642 8.2845 9.74959 8.23988 9.86844 8.23988C9.98729 8.23988 10.1063 8.24097 10.2102 8.24619C10.223 8.24684 10.2363 8.24676 10.2501 8.24668C10.354 8.24607 10.4835 8.24531 10.6113 8.55225C10.6605 8.67038 10.7324 8.84551 10.8083 9.03021C10.9617 9.40372 11.1312 9.81638 11.161 9.8761C11.2056 9.96535 11.2353 10.0694 11.1759 10.1885C11.167 10.2063 11.1587 10.2232 11.1508 10.2393C11.1062 10.3304 11.0734 10.3974 10.9976 10.4859C10.9678 10.5207 10.937 10.5582 10.9062 10.5957C10.8449 10.6704 10.7836 10.7451 10.7301 10.7983C10.6409 10.8872 10.548 10.9836 10.652 11.1621C10.756 11.3406 11.1138 11.9245 11.6438 12.3972C12.2136 12.9054 12.7088 13.1202 12.9598 13.2291C13.0088 13.2504 13.0485 13.2676 13.0777 13.2822C13.2559 13.3715 13.3599 13.3565 13.4639 13.2376C13.5679 13.1186 13.9096 12.7169 14.0284 12.5385C14.1473 12.36 14.2662 12.3898 14.4296 12.4492C14.5931 12.5088 15.4696 12.9401 15.6479 13.0293C15.6827 13.0467 15.7153 13.0625 15.7454 13.077Z" fill="white"/>
</svg>
